<svg xmlns="http://www.w3.org/2000/svg" width="100" height="27.584" viewBox="0 0 100"><g fill-rule="evenodd" stroke-width=".5"><path d="M16.421 1.88c-1.728.23-3.559 1.327-4.505 2.701-.087.127-.208.282-.268.345s-.095.116-.076.116c.018.001 0 .021-.04.043s-.073.07-.073.104-.037.102-.084.151-.084.114-.084.144-.018.055-.042.055-.042.029-.042.063-.057.141-.125.235-.125.189-.125.207-.029.068-.063.108a.3.3 0 0 0-.067.115c-.005.056-.207.402-.275.472a.2.2 0 0 0-.053.112c0 .031-.029.085-.063.119s-.131.191-.212.347a16 16 0 0 1-.363.638c-.117.195-.214.368-.214.384s-.029.065-.064.107a2 2 0 0 0-.253.436c-.025.063-.064.115-.085.115s-.037.035-.037.079a.2.2 0 0 1-.056.124c-.03.025-.128.187-.216.359s-.176.314-.195.314c-.018 0-.034.038-.034.085 0 .046-.028.096-.062.108s-.053.038-.042.057-.007.043-.042.057-.062.06-.062.105a.24.24 0 0 1-.063.144c-.035.035-.063.084-.063.109s-.037.086-.084.136-.084.114-.084.144-.02.055-.044.055-.034.018-.021.038c.013.021-.004.067-.04.102-.035.035-.063.075-.063.089s-.058.11-.127.211c-.07.102-.116.184-.102.184s-.013.05-.06.11-.086.13-.086.153-.025.072-.057.109-.111.169-.175.295c-.464.89-.886 1.188-1.685 1.188-1.688 0-2.389-2.209-.969-3.05.098-.058.206-.094.241-.081q.06.021.037-.019c-.015-.024-.002-.038.029-.033.031.006.103-.015.161-.046.294-.165 1.2-.057 1.738.207.523.256-.172-.696-.723-.988-.84-.446-1.902-.313-2.688.338-.152.126-.288.221-.302.21q-.021-.015-.006.008c.035.048-.064.185-.111.156q-.042-.024-.018.018c.016.025-.008.083-.052.128-.07.07-.24.399-.273.526l-.035.104c-.131.345-.115 1.792.019 1.792.021 0 .028.017.015.037-.021.035.271.661.369.791.07.092.666.685.759.755.793.595 2.117.8 2.889.448.103-.047.211-.086.239-.086s.052-.013.052-.028.07-.06.154-.101c.664-.317.903-.625 2.118-2.733l1.657-2.875c1.911-3.318 1.95-3.38 2.528-3.962.561-.567 1.813-1.353 2.025-1.272.037.015.054.007.04-.017-.021-.035.096-.062.199-.046.018.003.032-.01.032-.029 0-.018.107-.057.239-.085l.344-.075c.699-.155 2.014-.12 2.833.075.657.157 1.753.657 1.826.835.007.018.037.034.067.034.086 0 .827.752 1.004 1.021.091.138.175.259.189.271.138.123.684 1.567.638 1.685-.012.031-.002.069.021.083.159.098.151-1.335-.009-1.863-.765-2.514-3.522-4.019-6.606-3.608m13.023.019a4.63 4.63 0 0 0-2.285 1.136c-.15.141-.294.256-.32.256s-.043.023-.036.052-.015.047-.044.041c-.03-.006-.044.005-.032.026s-.023.087-.081.149c-.057.061-.103.12-.103.131s-.051.077-.115.148c-.063.071-.11.146-.104.167.005.02-.009.036-.034.036s-.034.017-.021.038.009.044-.008.052a.6.6 0 0 0-.115.167c-.182.333-.372.64-.404.653-.018.007-.025.029-.013.048.011.018-.007.057-.042.085a.2.2 0 0 0-.062.13c0 .043-.017.079-.036.079s-.049.033-.062.072a2 2 0 0 1-.13.239 7 7 0 0 0-.214.375c-.06.115-.125.218-.144.231s-.063.09-.098.174-.083.164-.106.178-.033.044-.019.066c.013.021.004.038-.02.038s-.044.018-.044.038c0 .05-.261.477-.302.496-.018.007-.032.046-.032.086s-.037.113-.084.162c-.045.05-.084.107-.084.13s-.024.066-.052.096c-.029.03-.096.143-.148.252a1 1 0 0 1-.135.221 1 1 0 0 0-.135.22c-.141.289-.366.686-.432.761-.032.036-.057.098-.057.136s-.018.07-.04.07-.072.07-.113.157-.092.17-.117.187q-.04.03-.002.032c.024.001.021.015-.005.032-.025.017-.127.18-.224.364-.097.183-.202.362-.233.398s-.109.167-.173.291c-.134.26-.23.426-.263.457a1 1 0 0 0-.097.167c-.041.08-.138.249-.215.375-.078.126-.16.27-.182.319s-.06.102-.086.117-.035.043-.025.06-.021.077-.072.132-.089.109-.085.121c.013.041-.247.501-.284.501-.02 0-.035.037-.035.084s-.018.084-.038.084c-.021 0-.06.066-.086.146s-.064.145-.082.145-.057.057-.086.127c-.151.365-1.081.854-1.394.734-.137-.052-.148-.029 1.205-2.37.222-.384.457-.847.524-1.029.961-2.631-1.794-5.137-4.33-3.939-.459.216-.681.397-1.263 1.022-.038.042-.121.18-.183.307s-.131.232-.15.232-.028.016-.015.035-.011.071-.052.115-.124.182-.186.308a6 6 0 0 1-.215.396 7 7 0 0 0-.18.313c-.141.267-.268.479-.297.5-.016.011-.053.082-.084.157s-.07.136-.086.136c-.018 0-.044.046-.059.104s-.044.104-.068.104c-.022 0-.041.028-.041.063s-.018.063-.038.063c-.021 0-.051.057-.066.125-.015.069-.043.125-.063.125-.019 0-.049.043-.065.094s-.066.145-.11.208-.145.24-.224.394-.143.262-.144.239-.038.035-.084.127c-.138.277-.266.496-.333.571-.035.038-.11.166-.167.281s-.117.21-.135.21-.032.036-.032.079a.2.2 0 0 1-.063.13c-.035.029-.063.077-.063.109s-.018.058-.042.058-.038.014-.034.032-.037.114-.094.213l-.16.292c-.032.06-.094.149-.139.199s-.085.115-.089.146c-.011.072-.2.385-.244.403-.018.007-.033.05-.033.094s-.02.08-.044.08-.034.017-.021.037c.013.021-.005.06-.04.088-.035.029-.062.077-.062.108 0 .032-.018.058-.042.058a.043.043 0 0 0-.042.043c0 .08-.361.582-.396.55q-.028-.024-.007.016c.035.06-.211.402-.266.368-.022-.015-.036-.001-.029.029s-.013.05-.043.043c-.032-.006-.043.009-.026.035.037.06-.191.297-.26.271-.029-.011-.049.002-.043.03.005.028-.015.045-.045.039s-.044.006-.032.028c.064.103-.725.66-1.38.973-1.224.585-3.07.656-4.511.173-1.603-.537-2.743-1.734-3.192-3.353-.15-.541-.148-.537-.191-.392-.103.353-.077 1.346.043 1.667.018.046.07.196.117.334.11.323.194.536.222.563.012.011.069.111.125.221.057.11.133.233.17.273a.6.6 0 0 1 .084.117c.027.072.334.43.564.657.713.704 1.565 1.165 2.773 1.501.482.134 2.295.196 2.742.094l.313-.069.292-.064a1 1 0 0 0 .104-.036 1 1 0 0 1 .167-.045 1 1 0 0 0 .115-.026.2.2 0 0 1 .052-.018l.063-.021.052-.019a3 3 0 0 0 .149-.058c.065-.026.139-.036.163-.021q.04.024.015-.021c-.026-.043.023-.067.111-.053.018.003.032-.012.032-.033s.043-.048.096-.061a3.6 3.6 0 0 0 .48-.256c.211-.128.406-.22.432-.203q.041.024.019-.015c-.015-.025.07-.114.188-.199.774-.556 1.608-1.563 2.328-2.812a1789 1789 0 0 0 1.936-3.354c1.916-3.326 1.972-3.419 2.183-3.616.183-.172.582-.413.66-.4a.2.2 0 0 0 .053-.003c.083-.034.584-.099.584-.075 0 .046-.306.596-.339.609-.019.007-.035.041-.035.073s-.014.059-.032.059c-.017.001-.068.08-.113.177s-.165.317-.267.489-.242.416-.31.541a2.5 2.5 0 0 1-.187.302c-.035.041-.048.073-.029.073s-.005.043-.053.094c-.069.073-.38.637-.407.74l-.028.084c-.314.901-.257 1.839.162 2.656.085.166.169.302.185.302.017 0 .042.033.054.073.024.073.416.495.617.662.164.137.665.431.782.459a.6.6 0 0 1 .146.054c.254.178 1.686.241 1.877.083.029-.023.108-.046.177-.051s.118-.017.109-.026.06-.052.154-.095a3.6 3.6 0 0 0 .985-.718c.277-.296.349-.412 1.407-2.254l1.27-2.208 1.5-2.604c1.636-2.843 1.648-2.862 1.996-3.224.308-.32.723-.633 1.073-.811.269-.137.727-.301.768-.275.021.013.037.006.037-.015s.024-.04.052-.043.099-.016.157-.028c.397-.085.59-.1 1.125-.088.333.006.67.033.75.058s.23.069.333.097c.328.091.999.405 1.116.522.031.032.07.057.085.057.034 0 .442.39.591.566.362.425.71 1.076.898 1.685.121.391.161.357.209-.178.127-1.392-.888-3.014-2.348-3.754-.84-.425-2.209-.603-3.232-.418M16.894 4.351c-.921.145-1.776.526-2.359 1.053-.087.079-.178.131-.203.116s-.039-.009-.033.012c.009.034-.282.394-.52.641-.04.042-.073.092-.073.113s-.029.049-.065.062-.053.044-.039.068-.001.052-.033.065-.059.045-.059.072-.088.196-.195.374-.194.334-.194.345-.037.061-.084.111-.084.115-.084.144-.018.054-.042.054-.042.026-.042.059-.033.092-.073.133-.068.08-.061.086c.011.013-.075.185-.183.367-.027.045-.09.163-.141.26-.05.098-.108.177-.129.177s-.038.024-.038.052-.048.122-.105.208-.095.155-.081.155-.013.054-.061.121-.086.141-.086.167-.017.045-.037.045-.049.033-.064.072a2 2 0 0 1-.256.43c-.041.044-.058.081-.038.081s-.004.043-.051.094a1 1 0 0 0-.142.23c-.032.074-.071.136-.089.136s-.032.037-.032.084c0 .045-.016.084-.035.084s-.081.094-.135.208c-.054.115-.11.208-.123.208s-.025.023-.026.052-.093.2-.204.379a15 15 0 0 0-.344.584 2 2 0 0 1-.167.277 2 2 0 0 0-.151.26c-.069.132-.139.239-.157.239s-.032.029-.032.063c0 .035-.018.063-.042.063s-.042.037-.042.084c0 .045-.02.084-.044.084s-.035.016-.022.035c.012.019-.016.075-.061.125-.046.05-.069.09-.051.09s.015.015-.009.032a.5.5 0 0 0-.094.124l-.104.188a.5.5 0 0 1-.094.124q-.036.029-.002.032c.021.001.003.03-.042.067s-.053.051-.018.033c.245-.129-.575.784-.958 1.067-2.42 1.784-5.587.629-6.439-2.346q-.148-.507-.178.255c-.018.44.108 1.21.238 1.459.021.04.107.222.192.405s.218.411.295.507.141.185.141.201c0 .223 1.56 1.355 1.867 1.355.041 0 .092.016.115.035s.134.065.248.1c.668.204 1.621.292 2.188.202l.436-.069a1 1 0 0 0 .234-.062c.037-.02.08-.025.093-.01.015.015.064-.009.11-.05.046-.042.096-.064.111-.05s.075.002.135-.029l.38-.193q1.259-.635 2.036-1.97c.123-.211.975-1.687 1.893-3.28.917-1.593 1.728-2.999 1.802-3.125l.312-.541c.449-.782 1.004-1.313 1.785-1.706.145-.073.292-.122.325-.11.034.013.049.005.035-.018-.014-.022-.001-.043.029-.046.111-.009.134-.017.402-.124a1.4 1.4 0 0 1 .25-.061 1.5 1.5 0 0 0 .215-.044c.488-.171 1.845.048 2.54.409.99.515 1.872 1.709 2.067 2.796.056.312.121.087.137-.464.069-2.554-2.534-4.557-5.348-4.114m13.396.018c-.866.192-1.821.815-2.145 1.4-.038.069-.11.194-.16.277-.232.387-.32.548-.32.583 0 .02-.015.036-.032.036s-.059.06-.091.136-.085.161-.115.191-.055.082-.055.115-.018.059-.042.059c-.022 0-.037.014-.032.032.014.045-.146.302-.188.302-.019 0-.025.017-.013.036s-.016.086-.064.145c-.047.06-.07.11-.051.11s.007.018-.025.038a.2.2 0 0 0-.07.113.2.2 0 0 1-.076.122c-.035.026-.066.073-.066.105s-.037.104-.083.162-.082.12-.083.14a.6.6 0 0 1-.105.16c-.058.069-.104.15-.104.183s-.022.059-.049.059-.037.012-.022.025c.014.015-.021.094-.076.176s-.102.164-.102.18c0 .033-.515.9-.58.978-.022.026-.029.059-.015.072.014.014.004.025-.023.025s-.049.029-.049.063c0 .035-.021.063-.049.063s-.036.013-.021.028.003.058-.029.094-.122.188-.203.337c-.176.328-.333.597-.365.625-.013.011-.046.068-.074.125s-.067.133-.086.167l-.107.188a1.5 1.5 0 0 0-.095.198c-.013.04-.04.073-.059.073s-.037.028-.037.063-.02.063-.044.063-.035.017-.021.036c.013.02-.015.07-.059.11s-.071.09-.059.11.004.036-.018.036-.051.047-.066.104-.044.104-.067.104-.041.022-.041.049-.028.08-.062.117-.13.208-.212.378-.163.319-.177.331a1 1 0 0 0-.109.177c-.045.086-.097.157-.115.157s-.028.014-.023.032c.009.029-.033.107-.168.323a1 1 0 0 0-.076.157c-.013.04-.041.072-.061.072s-.036.029-.036.063c0 .035-.018.063-.042.063s-.037.018-.032.038c.012.043-.078.188-.188.302-.04.042-.069.086-.063.097.021.041-.424.508-.642.676-2.39 1.839-5.564.817-6.49-2.093l-.11-.352c-.104-.321-.164.88-.063 1.271.117.453.186.659.302.898.067.137.12.268.12.29s.018.041.042.041.042.028.042.063.018.063.042.063.042.025.042.055.033.091.073.136.122.147.182.228c.196.263.593.626.911.836.172.113.335.224.363.246s.066.042.084.042.143.057.279.125.29.124.344.124.099.018.099.042.044.042.099.042.172.025.261.057c.142.05.262.074.682.137.518.077 1.672-.015 2.042-.165.035-.014.1-.03.145-.037s.092-.022.104-.034c.057-.059.558-.244.599-.221.025.015.034.012.017-.006s.124-.136.313-.261c.829-.553 1.157-.96 2.082-2.574a1864 1864 0 0 1 3.291-5.708L28.9 7.362c.429-.748 1.321-1.563 1.554-1.42.025.015.045.006.045-.021s.028-.038.061-.025.07.007.083-.011c.102-.165 1.095-.178 1.613-.021.752.228 1.692 1.015 1.7 1.425.001.029.017.052.035.052s.07.099.115.219l.082.219.013-.246c.098-1.905-1.98-3.581-3.909-3.154m.802 2.402a2.1 2.1 0 0 0-.798.416c-.087.079-.174.13-.193.113s-.021-.009-.005.018c.016.028-.013.079-.067.116-.052.036-.086.074-.073.085s-.012.057-.052.104-.073.103-.073.127a.04.04 0 0 1-.042.042c-.023 0-.042.028-.042.063s-.022.063-.049.063-.037.012-.022.026c.026.026-.058.191-.295.578a11 11 0 0 0-.24.417 2 2 0 0 1-.139.23 1 1 0 0 0-.109.184 1.3 1.3 0 0 1-.125.209 2 2 0 0 0-.164.289c-.068.134-.142.264-.168.29s-.069.095-.097.151a3 3 0 0 1-.254.43c-.025.032-.035.069-.019.084s.005.027-.021.027-.049.025-.049.057-.036.102-.08.159-.16.255-.257.443c-.098.188-.193.342-.212.342s-.035.032-.035.069-.044.127-.099.198-.112.171-.128.223-.048.094-.069.094-.035.014-.029.032c.005.017-.034.106-.088.198s-.091.17-.084.173c.009.004-.025.051-.073.104s-.102.14-.117.191-.048.094-.07.094-.029.018-.016.042c.015.023.01.042-.009.042s-.09.107-.159.239-.138.245-.154.254c-.018.007-.032.051-.032.095s-.028.092-.062.105c-.035.013-.052.041-.04.061s.003.037-.021.037c-.025 0-.044.029-.044.063 0 .035-.018.063-.042.063-.022 0-.042.035-.042.079a.2.2 0 0 1-.063.131c-.035.029-.063.077-.063.109s-.022.058-.049.058-.037.011-.025.025c.013.013-.006.06-.045.105-.038.044-.072.1-.074.121s-.007.056-.011.074a.4.4 0 0 1-.078.117c-.113.128-.263.384-.278.474-.002.011-.043.077-.092.145s-.114.209-.143.313-.067.197-.081.208c-.126.102-.184 1.216-.086 1.667a2.41 2.41 0 0 0 2.325 1.875c.255.001.248-.046-.041-.278-1.042-.836-1.236-2.087-.523-3.384.096-.174.435-.766.755-1.317.954-1.639 1.419-2.444 2.571-4.438 1.264-2.187 1.191-2.088 1.548-2.111.483-.032.639.267.394.753-.065.128-.135.233-.154.233s-.036.034-.036.075-.036.115-.081.162c-.044.048-.07.099-.056.113s.006.025-.017.025c-.038 0-.157.207-.139.245.004.009-.009.028-.029.042s-.083.115-.139.224-.118.198-.137.198-.024.016-.012.035-.015.075-.06.123c-.045.049-.082.117-.082.152s-.017.065-.036.065-.061.061-.091.136c-.046.115-.342.623-.575.99a1 1 0 0 0-.069.125 2 2 0 0 1-.108.188 3 3 0 0 0-.135.23 2 2 0 0 1-.111.188c-.045.069-.122.2-.172.291a54 54 0 0 1-.592 1.042c-.028.045-.061.092-.074.104s-.051.082-.083.157-.073.136-.09.136-.032.026-.032.058-.028.081-.062.108c-.035.029-.052.067-.041.086s.002.046-.022.06c-.024.015-.069.087-.099.161s-.083.162-.116.196a1 1 0 0 0-.132.206c-.04.081-.089.174-.11.208l-.238.395c-.111.182-.201.345-.201.36s-.047.1-.104.189a4 4 0 0 0-.183.328l-.115.238a.5.5 0 0 0-.035.177c0 .058-.017.104-.036.104-.049 0-.061.786-.013.848a.6.6 0 0 1 .068.173c.037.157.234.467.387.611l.117.109 1.771-3.062 2.474-4.277c1.377-2.38 1.337-2.29 1.311-2.939-.05-1.204-1.24-2.086-2.399-1.774M19.72 9.16c.092.232.165.622.14.751a5 5 0 0 0-.045.281c-.021.153-.186.516-.381.839l-.242.417c-.09.158-.184.3-.208.317s-.028.031-.007.032.013.029-.016.064a2 2 0 0 0-.234.406c-.013.04-.04.072-.057.072s-.044.047-.059.104-.045.104-.07.104-.034.016-.021.035-.016.075-.061.125-.07.089-.054.089.002.033-.032.072a1.3 1.3 0 0 0-.121.198 1 1 0 0 1-.082.145 1 1 0 0 0-.091.146c-.233.413-.548-.411-.411-1.073.045-.221.504-1.063 1.633-3.001.2-.343.321-.379.422-.125" fill="#047af7"/><path d="M16.625 1.709c-.495.058-1.497.307-1.445.36.011.011.148-.017.305-.063 2.183-.635 4.722-.117 6.22 1.271 1.21 1.121 1.826 2.866 1.448 4.104-.068.221-.028.36.05.173.2-.483.2-1.986.001-2.199-.021-.021-.037-.078-.038-.125s-.057-.198-.124-.336-.123-.263-.124-.279c-.003-.084-.356-.608-.646-.959-.345-.413-1.236-1.156-1.391-1.156-.022 0-.046-.014-.054-.032-.02-.044-.566-.302-.64-.302-.034 0-.061-.018-.061-.042s-.035-.042-.079-.042-.148-.029-.233-.065c-.671-.279-2.182-.426-3.188-.308m13.063.005c-.317.041-1.002.234-.964.273.013.013.076.003.14-.021.898-.353 2.561-.262 3.641.2 1.778.76 3.006 2.94 2.495 4.435-.056.165-.052.211.011.159.269-.223.238-1.612-.05-2.279l-.107-.25c-.55-1.279-2.016-2.325-3.534-2.521-.385-.05-1.221-.046-1.633.005m-14.73.41q.002.078.125 0c.051-.033.044-.041-.032-.041-.051-.001-.094.018-.094.041m2.171 2.046c-.297.035-.982.199-.953.229.008.008.201-.024.429-.07 2.667-.544 5.221 1.024 5.689 3.494.065.34.031 1.063-.059 1.274-.062.146-.062.158-.001.145.21-.042.276-1.233.102-1.847-.613-2.165-2.779-3.506-5.208-3.224m13.412.001c-.228.037-.767.2-.742.224.007.006.153-.023.326-.067 1.738-.438 3.551.631 4.041 2.382.101.36.161 1.054.094 1.095-.06.037-.013.194.058.194.036 0 .06-.051.065-.136l.018-.344c.023-.436-.222-1.379-.436-1.68a.6.6 0 0 1-.088-.155c0-.188-1.135-1.185-1.349-1.185-.034 0-.068-.014-.074-.032-.086-.196-1.338-.39-1.91-.296m-14.584.286q.002.078.125 0c.051-.033.044-.041-.032-.041-.051-.001-.094.018-.094.041m11.678.397c-.21.28-.574.905-3.97 6.811l-1.319 2.292c-.192.333-.299.548-.239.479.106-.121.38-.577.704-1.167.087-.161.203-.361.258-.447s.098-.164.098-.174.101-.184.223-.386a20 20 0 0 0 .403-.701c.099-.183.234-.412.298-.507.065-.096.117-.188.117-.203s.059-.126.132-.242c.137-.221.577-.987.577-1.004 0-.005.132-.23.291-.497.161-.268.292-.496.292-.507s.103-.189.23-.396c.126-.207.229-.383.229-.391s.109-.2.243-.425.299-.513.369-.639c.227-.411.358-.643.45-.791.05-.081.103-.174.12-.208.017-.035.052-.1.081-.145.028-.046.129-.214.224-.375s.231-.365.301-.454.129-.169.129-.177c0-.048-.056.013-.238.257m-14.365.467-.116.158.135-.138c.074-.075.126-.146.115-.158-.011-.011-.071.051-.135.138m-.342.446c-.171.259-2.055 3.512-3.95 6.816-.269.47-.545.929-.613 1.021-.102.138-.09.131.067-.042.104-.115.191-.221.191-.235.001-.022.225-.416.376-.66.021-.035.135-.232.251-.438s.317-.553.444-.771c.128-.217.279-.48.336-.584a5 5 0 0 1 .136-.23c.017-.022.077-.126.135-.229a76 76 0 0 1 .742-1.292c.306-.524.376-.647.448-.791.04-.081.084-.155.098-.167s.066-.096.115-.188.107-.195.13-.23c.129-.199.417-.721.417-.753 0-.021.018-.038.042-.038a.04.04 0 0 0 .042-.041c0-.022.113-.23.25-.46s.25-.428.25-.441.075-.134.169-.27.153-.247.136-.247-.112.12-.207.267m4.801.816c-.332.059-.732.176-.76.222-.016.025.002.032.044.015 1.886-.724 4.082.656 4.311 2.709.104.935-.025 1.308-1.101 3.184-.468.817-.852 1.506-.852 1.532 0 .066.197.058.455-.018.291-.086.244-.12-.074-.054-.324.067-.329.058-.145-.26.085-.146.212-.369.284-.495a36 36 0 0 1 .491-.841c.108-.182.198-.337.198-.345s.141-.258.313-.556.313-.569.313-.601.017-.075.037-.098c.174-.184.268-1.282.154-1.81-.366-1.71-2.026-2.878-3.67-2.583m13.561.004c-.201.039-.639.204-.612.231.009.009.083-.012.165-.046 1.09-.456 2.454.286 2.7 1.467.153.74.02 1.069-1.419 3.49-.109.183-.245.417-.303.521a475 475 0 0 1-1.24 2.146c-.221.379-1.366 2.358-1.917 3.313-.35.607-.657 1.118-.683 1.135q-.042.03.027.032c.04.001.072-.028.072-.061 0-.035.015-.063.032-.063.018-.001.051-.043.075-.094s.244-.435.49-.852c.244-.417.445-.778.445-.802s.014-.044.032-.044.051-.043.075-.094.153-.281.287-.51a55 55 0 0 0 .347-.605c.058-.103.148-.253.203-.333s.098-.161.098-.18.057-.117.125-.216.125-.193.125-.206.075-.148.167-.299c.091-.15.167-.281.167-.289s.083-.151.183-.319q.414-.685.495-.876c.026-.063.063-.115.081-.115s.033-.018.033-.04.141-.273.313-.558.313-.531.313-.546.053-.106.118-.203c.066-.096.175-.277.244-.403l.214-.386.344-.604c.049-.086.171-.292.271-.458s.182-.329.182-.362.017-.071.036-.084c.069-.043.141-.572.117-.854-.102-1.206-1.225-2.063-2.405-1.832m-1.972.256c-.105.14-.474.759-1.163 1.948a1674 1674 0 0 0-2.043 3.542 135 135 0 0 1-.554.959c-.074.126-.486.839-.914 1.583s-.843 1.433-.92 1.528c-.165.203-.193.293-.035.115.147-.167.333-.435.495-.717l.943-1.633c.033-.058.069-.114.08-.125a2 2 0 0 0 .099-.167c.189-.354.375-.691.404-.729.018-.022.097-.154.175-.291l.524-.911c.209-.364.381-.669.381-.678s.051-.096.112-.193c.123-.194.465-.778.628-1.072a13 13 0 0 1 .193-.333c.169-.277.281-.48.329-.594.027-.063.064-.115.082-.115s.033-.018.033-.04.085-.179.188-.349.188-.33.188-.355.018-.046.042-.046.042-.021.042-.044.057-.127.125-.227c.069-.1.125-.192.125-.204s.075-.145.167-.295c.091-.149.167-.282.167-.295s.058-.106.127-.207c.146-.213.135-.25-.016-.05m-14.351.363c-.129.15-.535.796-.795 1.264a1480 1480 0 0 1-3.602 6.251c-.16.271-.356.581-.437.688-.117.155-.124.174-.035.092.14-.129.542-.745.884-1.355.089-.16.234-.413.32-.563s.18-.319.207-.377.059-.114.071-.125.049-.068.081-.125l.446-.778.441-.771c.029-.053.064-.106.075-.117s.051-.077.088-.146a17 17 0 0 1 .439-.78c.053-.086.098-.167.098-.18s.064-.122.142-.24c.172-.259.437-.729.469-.83.013-.04.04-.072.06-.072s.036-.018.036-.04c0-.021.059-.139.132-.26.072-.121.168-.286.211-.366s.102-.183.129-.23c.028-.045.133-.224.234-.396s.257-.402.347-.51.148-.197.129-.195-.096.074-.171.162m16.272 1.2c-.035.04-.519.861-1.075 1.823l-1.52 2.625c-1.532 2.631-1.913 3.298-2.022 3.533-.386.828-.35 1.694.099 2.37.229.344.842.909.987.909.113 0 .105-.102-.011-.155-.207-.097-.823-.695-.823-.799a.06.06 0 0 0-.034-.052c-.285-.118-.503-1.821-.253-1.976.02-.013.036-.048.036-.079 0-.123.336-.758.798-1.51.088-.142.16-.269.16-.28s.081-.157.18-.324c.571-.963.778-1.321.778-1.346 0-.015.04-.084.087-.151s.158-.248.243-.402.194-.345.239-.425c.448-.778.576-.995.643-1.089.043-.061.079-.122.079-.137s.075-.149.167-.3c.091-.15.167-.281.167-.29s.075-.139.167-.288.167-.279.167-.287.133-.235.294-.506c.499-.834.612-1.052.446-.863m-14.625.75a152 152 0 0 0-.709 1.219 3462 3462 0 0 1-3.138 5.438 15 15 0 0 1-.781 1.208c-.113.153-.114.157-.01.042.184-.204.271-.312.271-.336a1 1 0 0 1 .122-.176c.113-.142.544-.827.544-.864 0-.009.059-.116.131-.236.071-.121.271-.464.443-.762.435-.756.441-.766.588-1.012a3 3 0 0 0 .131-.237c0-.013.322-.564.5-.855.075-.122.438-.771.454-.813a.2.2 0 0 1 .042-.063c.021-.018.072-.108.272-.479a1 1 0 0 1 .066-.104c.011-.011.048-.068.081-.125a85 85 0 0 0 .639-1.125c.069-.126.161-.279.203-.34s.077-.121.077-.135.074-.146.167-.295c.091-.149.151-.272.133-.272s-.119.145-.225.323M4.961 8.954c-.41.074-.833.215-.833.278-.001.018.058.003.128-.034.494-.256 1.393-.226 1.988.067.476.234 1.01.846 1.01 1.159 0 .074.094.148.136.106.031-.031-.07-.403-.147-.548-.225-.416-.713-.783-1.282-.964-.163-.051-.831-.095-.998-.064m14.465.272c-.03.049-.282.484-.56.969l-.766 1.334c-.414.719-.496 1.215-.286 1.724.061.149.191.249.189.146a1.5 1.5 0 0 0-.138-.371c-.054-.054-.03-.792.032-.968.034-.095.196-.402.361-.682s.337-.586.382-.677.105-.195.135-.23c.068-.08.394-.664.424-.76.013-.041.04-.073.059-.073s.037-.018.037-.04.056-.135.123-.25c.117-.2.124-.309.007-.122m-15.066 1.58c-.529.772-.213 1.887.659 2.335.275.141.927.208 1.147.119.083-.034.026-.043-.271-.046-1.258-.011-2.117-1.373-1.5-2.377.143-.233.152-.25.133-.25-.01 0-.086.099-.168.219m-2.605 1.446c-.025.07-.027.116-.006.102.021-.013.059.057.085.155.677 2.597 3.126 3.958 5.412 3.009.254-.105.232-.14-.025-.04-1.491.58-3.405.058-4.37-1.193-.101-.13-.182-.257-.182-.281s-.018-.045-.038-.045c-.044 0-.463-.847-.556-1.125a12 12 0 0 1-.136-.448c-.082-.292-.117-.318-.18-.134m13.6.913c-.073.119.428 1.385.739 1.865.992 1.534 3.015 2.168 4.728 1.483.146-.059.256-.116.244-.128-.011-.012-.088.011-.171.05-.951.451-2.742.27-3.583-.361-.337-.253-.515-.404-.622-.524l-.242-.275c-.063-.071-.115-.141-.115-.158s-.025-.053-.054-.084c-.234-.241-.692-1.299-.767-1.774-.021-.13-.104-.18-.158-.096m-14.453.57c-.138.138.293 1.506.666 2.119 1.196 1.964 3.925 2.873 6.42 2.139.167-.049.302-.104.302-.123s-.051-.015-.115.009c-.829.319-2.509.335-3.541.034a12 12 0 0 0-.333-.093.2.2 0 0 1-.08-.041.14.14 0 0 0-.083-.029c-.075 0-.801-.35-.989-.477a1 1 0 0 0-.175-.106c-.099 0-1.102-1.024-1.102-1.125a.04.04 0 0 0-.043-.04c-.022 0-.042-.029-.042-.063 0-.035-.015-.063-.034-.063-.133 0-.697-1.497-.732-1.942-.011-.148-.073-.247-.122-.198m7.49 4.075c-.079.059-.077.059.013.036.051-.013.104-.041.117-.06.035-.058-.041-.043-.131.024" fill="#042f5f"/><path d="M65.291.08c-1.256.481-1.617 1.963-.714 2.929a1.89 1.89 0 0 0 1.847.557C68.237 3.132 68.4.717 66.658.08c-.294-.107-1.087-.108-1.367-.001m-26 10.795v10.251h3.125v-5.906c0-3.248-.018-6.487-.041-7.198-.042-1.338-.083-3.823-.062-3.75.101.357.527 1.696.915 2.875.166.504.368 1.123.45 1.375a29 29 0 0 0 .647 1.798c.091.226.24.608.332.848a190 190 0 0 0 1.174 3.042c.073.195.148.392.168.438s.09.234.159.417.202.53.296.771c.095.24.171.452.171.469-.001.018.035.112.079.208.043.098.13.308.193.469l.156.396c.057.14.085.21.239.625.073.195.148.392.167.438s.094.242.167.438.147.392.166.438a245 245 0 0 1 .596 1.521l.104.271 1.348.011 1.348.011.047-.115c.025-.064.085-.218.132-.344a151 151 0 0 1 .76-1.979l.162-.427.258-.688c.07-.19.144-.381.163-.427.018-.045.094-.242.167-.438s.213-.56.313-.813.239-.618.313-.813.147-.392.167-.438l.163-.427.258-.688c.071-.189.144-.381.164-.427.099-.239.536-1.382.799-2.083.069-.183.14-.371.159-.416.018-.046.073-.192.121-.323l.168-.458c.231-.634.315-.875.58-1.677a98 98 0 0 0 .464-1.438c.096-.309.191-.609.21-.666l.271-.854c.13-.412.252-.787.272-.834.022-.051.029.38.018 1.083-.011.642-.03 4.434-.043 8.427l-.024 7.261h3.13V.628h-4.585l-.046.115a17 17 0 0 0-.233.594l-.214.573-.258.688c-.071.189-.163.438-.204.552a75 75 0 0 1-.437 1.167c-.147.383-.355.935-.438 1.167l-.208.563c-.073.196-.167.448-.208.563a48 48 0 0 1-.417 1.104c-.042.103-.143.375-.228.604a21 21 0 0 1-.188.5 15 15 0 0 0-.127.333l-.124.334c-.018.045-.056.148-.084.229s-.065.183-.084.23c-.018.045-.074.196-.124.333-.051.138-.106.287-.125.334-.018.045-.057.148-.084.229s-.075.203-.104.271a16 16 0 0 0-.185.479c-.072.195-.185.495-.252.666a14 14 0 0 0-.211.604l-.205.646c-.062.195-.154.495-.204.666s-.137.453-.191.625a43 43 0 0 0-.4 1.396c-.025.091-.06.213-.079.271a17 17 0 0 0-.124.459l-.103.396c-.013.045-.029.003-.099-.25-.12-.436-.596-2.095-.627-2.188a7 7 0 0 1-.087-.292 9 9 0 0 0-.085-.291c-.018-.058-.113-.357-.208-.666a21 21 0 0 0-.696-2 15 15 0 0 0-.183-.448c-.043-.097-.077-.193-.077-.213s-.035-.128-.08-.24a129 129 0 0 1-.628-1.641c-.072-.195-.194-.513-.271-.709s-.2-.513-.272-.709c-.16-.426-.184-.49-.24-.625a12 12 0 0 1-.128-.334 132 132 0 0 0-.619-1.625l-.217-.552a11 11 0 0 1-.12-.323 62 62 0 0 0-.383-1.021l-.167-.438a89 89 0 0 0-.313-.813 60 60 0 0 1-.312-.813 6 6 0 0 0-.165-.417c-.029-.054-.338-.064-2.33-.073L39.302.627zm36.645-5.12c-2.328.284-4.212 1.528-4.662 3.079-.226.777-.274 1.355-.171 2.042.055.363.086.51.171.787.162.537.784 1.363 1.284 1.701.094.064.193.137.22.162.045.043.93.488 1.118.564.255.102 1.188.377 1.521.449l.396.088c.331.075.525.117.771.167l.406.086.365.082c1.185.264 1.716.483 2.107.873.213.212.268.298.407.639.061.15.061.782 0 .933-.131.32-.174.394-.354.594-1.139 1.267-4.161 1.306-5.23.069l-.216-.251c-.141-.164-.336-.563-.445-.908-.099-.314-.128-.327-.511-.242-.097.021-.315.059-.487.085-.172.025-.416.064-.541.086-1.282.222-1.458.256-1.458.282 0 .019.021.105.134.53q.115.438.167.498a.2.2 0 0 1 .035.104c.004.102.369.804.456.877.013.011.069.086.123.167.544.809 1.737 1.558 3.022 1.897 1.227.324 3.108.349 4.282.059 1.304-.323 2.216-.797 2.952-1.534.335-.335.705-.784.705-.856 0-.018.035-.082.076-.142.466-.673.623-2.106.344-3.131a2.4 2.4 0 0 0-.26-.661c-.383-.743-.949-1.252-1.916-1.724-.601-.293-1.216-.483-2.401-.743l-.729-.162-.406-.087a13 13 0 0 1-.375-.084 15 15 0 0 0-.375-.086c-1.821-.393-2.651-1.317-2.24-2.494.469-1.34 3.117-1.895 4.559-.957.505.329 1.04 1.046 1.158 1.553.025.109.04.117.162.09.073-.015.241-.045.373-.068l.479-.079.51-.085c1.002-.165 1.268-.212 1.282-.227.017-.017-.141-.606-.203-.76-.252-.618-.363-.821-.685-1.25-.598-.799-1.594-1.484-2.518-1.73l-.291-.079c-.759-.209-2.243-.305-3.104-.201M64.419 13.52v7.605H67.5V5.917h-3.083zm20.309-7.49c.022.097.189.55.316.865l.163.427c.206.548.387 1.021.443 1.157.06.145.282.732.403 1.063.046.126.099.267.117.313.04.097.095.243.404 1.063.125.332.252.66.282.729s.092.229.139.354c.12.329.307.827.509 1.354.097.252.231.608.299.791s.205.539.304.791.221.571.271.709.106.287.126.334c.062.153.382.998.466 1.229.075.209.205.544.571 1.479.071.183.131.347.131.365-.001.018.035.112.078.208.043.098.102.242.13.323s.066.183.085.23.089.234.159.417.173.46.233.614c.101.263.104.292.05.459a36 36 0 0 0-.191.615c-.338 1.115-.519 1.495-.89 1.857-.477.466-.996.618-1.774.519-1.136-.143-1.026-.149-1.063.051-.029.154-.068.324-.184.823l-.134.584a21 21 0 0 1-.128.53c-.105.415-.11.404.163.459.577.115.771.141 1.3.172 2.711.161 4.486-1.078 5.395-3.765.039-.115.096-.265.126-.333.103-.236.548-1.389.78-2.021.046-.127.101-.272.121-.323l.075-.188c.021-.051.098-.253.172-.448s.214-.56.313-.813a46 46 0 0 0 .27-.709c.107-.294.141-.381.199-.521.05-.12.271-.707.393-1.042.098-.269.132-.358.191-.5a128 128 0 0 0 .889-2.323l.075-.188a34 34 0 0 1 .379-.99c.087-.218.228-.584.311-.813s.189-.496.233-.594.081-.194.081-.213.035-.128.08-.24.177-.457.296-.766c.342-.888.422-1.092.505-1.281.043-.098.077-.194.077-.213s.036-.128.08-.24c.174-.445.516-1.341.595-1.558.098-.267.128-.344.213-.541.035-.081.076-.198.092-.261l.029-.115H96.23l-.108.323a105 105 0 0 1-.653 1.844l-.209.584-.208.584a64 64 0 0 0-.251.709 136 136 0 0 1-.623 1.75l-.209.584c-.019.058-.113.32-.207.584a46 46 0 0 0-.276.791c-.057.172-.12.35-.141.396-.093.21-.645 1.859-.755 2.26l-.076.271a31 31 0 0 0-.204.74c-.251.945-.234.905-.288.659a62 62 0 0 0-.386-1.472l-.076-.271a46 46 0 0 0-.797-2.417c-.071-.195-.166-.457-.208-.584s-.174-.501-.291-.834a126 126 0 0 1-.333-.959c-.067-.195-.207-.598-.315-.896s-.286-.804-.4-1.125l-.344-.936c-.07-.195-.18-.513-.246-.709a108 108 0 0 0-.578-1.625l-.084-.23-1.633-.011-1.633-.011z" fill="#040404"/><path d="M16.938 1.775c-1.934.2-3.369.866-4.446 2.063-.464.516-.49.583-.048.119 3.051-3.189 8.488-2.766 10.289.801.424.841.556 1.907.328 2.647-.017.053-.011.094.012.094.115 0 .203-.916.136-1.399-.371-2.66-3.24-4.638-6.271-4.326m12.833.017c-.626.081-1.616.408-1.865.618-.04.034-.073.049-.073.033s-.041.009-.091.057c-.051.046-.106.085-.124.085-.07 0-.798.666-.765.7.011.011.146-.098.3-.241 2.033-1.901 5.668-1.535 7.179.724.608.909.873 2.127.606 2.787-.017.041-.011.073.013.073.073 0 .146-.582.12-.959-.165-2.406-2.641-4.216-5.299-3.874M26.689 3.46c-.066.069-.111.134-.1.143.011.011.071-.045.134-.124.141-.177.126-.186-.034-.019m-11.362.225a5.4 5.4 0 0 0-1.744 1.19c-.577.581-.616.642-2.528 3.962-2.943 5.109-2.723 4.745-3.082 5.086-.267.254-.503.431-.692.521-.085.041-.154.089-.154.109 0 .043.099-.008.448-.228.584-.367.632-.44 2.947-4.457 2.658-4.611 2.657-4.609 3.353-5.184.15-.124.338-.282.417-.35s.161-.124.179-.124.096-.045.169-.101c.114-.086.646-.364.987-.514.058-.025.086-.047.063-.049s-.185.06-.362.138m13.688-.018c-.41.194-.842.509-1.183.863-.348.361-.36.381-1.996 3.224-.534.928-1.208 2.1-1.5 2.604l-1.27 2.208a222 222 0 0 1-.952 1.646 3.6 3.6 0 0 1-1.173 1.181c-.182.106-.32.194-.305.194.166 0 .747-.389 1.036-.693.311-.328.202-.148 1.862-3.036l1.584-2.75c2.486-4.317 2.42-4.209 2.765-4.563.222-.228.547-.5.598-.5a.7.7 0 0 0 .16-.102c.073-.057.265-.169.424-.249.351-.177.312-.199-.051-.026m-11.995.61c-.919.139-1.931.538-2.381.942-.293.263-.736.735-.818.873l-.083.14.118-.146c2.396-2.952 7.339-2.095 8.29 1.438.112.414.141 1.15.057 1.452-.025.088-.035.17-.023.181.06.06.129-.39.124-.821-.015-1.653-1.224-3.223-2.931-3.804-.629-.214-1.786-.339-2.354-.254m13.271.034c-.797.169-1.575.623-1.927 1.122-.051.071.072-.022.274-.209 2.082-1.938 5.362-.633 5.568 2.215l.03.417.006-.346c.035-1.986-1.98-3.617-3.952-3.198m-18.531.423c-.051.081-.075.136-.054.122.062-.038.219-.272.181-.27-.018.001-.076.068-.128.148m18.36 1.319c-.419.213-.871.696-1.219 1.304L27.84 9.191a1864 1864 0 0 0-3.291 5.708c-.999 1.742-1.423 2.23-2.427 2.787-.149.083-.257.15-.24.15.051.001.427-.185.442-.218.007-.017.032-.032.054-.032.343 0 1.276-1.026 1.868-2.055 1.998-3.47 4.004-6.945 4.721-8.174q.517-.886 1.213-1.272c.357-.199.312-.221-.062-.03m-13.822.052c-.802.385-1.379.926-1.839 1.729l-.312.541-1.802 3.125-1.893 3.28c-.503.864-1.181 1.53-1.986 1.949-.121.063-.211.123-.201.134.045.045.8-.402 1.067-.633.66-.573.78-.742 1.948-2.772l3.046-5.292c.449-.779 1.153-1.625 1.353-1.625.035 0 .07-.015.077-.034.021-.052.362-.269.628-.4.132-.065.239-.125.239-.134 0-.026-.011-.021-.327.13m1.205.606q-1.187.249-1.847 1.103c-.089.115-.04.08.16-.115 1.961-1.909 5.093-.856 5.437 1.827.102.793-.062 1.375-.692 2.466-1.021 1.766-1.269 2.211-1.269 2.276 0 .331 1.198-.15 1.424-.572.026-.05-.06.009-.194.131-.365.333-1.029.602-1.161.469-.035-.035.4-.827 1.372-2.494.657-1.126.771-2.103.362-3.123-.552-1.38-2.172-2.268-3.593-1.969m13.539.017c-.265.073-.674.295-.796.43-.237.266-.252.309-.034.108 1.449-1.336 3.78.039 3.232 1.907-.087.296.109-.05-3.689 6.508-.993 1.714-1.796 3.126-1.785 3.137s.175-.247.365-.575l1.345-2.325a2783 2783 0 0 1 2.75-4.75c.459-.79.888-1.554.955-1.694.703-1.495-.743-3.19-2.342-2.746m.313 1.48c-.136.056-.168.106-1.312 2.086a1862 1862 0 0 1-2.572 4.438 97 97 0 0 0-.755 1.317c-.713 1.298-.519 2.549.523 3.384.142.115.249.224.237.243s.009.035.046.035c.108 0 .061-.06-.251-.322-.892-.747-1.155-1.73-.748-2.804.116-.306.261-.567 1.663-2.978a1924 1924 0 0 0 2.68-4.625c.172-.298.38-.603.463-.676.159-.141.161-.152.025-.097m-14.063.172c-.488.269-.383.108-2.563 3.893a1789 1789 0 0 1-1.937 3.354c-.966 1.674-2.059 2.811-3.26 3.387-.153.073-.28.148-.281.166-.009.119 1.232-.638 1.613-.985.82-.746 1.31-1.384 2.052-2.671 3.546-6.154 3.776-6.551 3.897-6.692.111-.131.397-.352.616-.477.097-.056.157-.101.134-.1s-.144.057-.271.127m2.006.904c-1.628 2.793-1.706 2.961-1.66 3.517.038.457.31.881.397.619.018-.052.011-.054-.045-.007-.237.196-.402-.893-.203-1.343.154-.348 1.64-2.916 1.731-2.992.074-.061.077-.072.016-.072-.044-.001-.133.105-.235.28M4.559 9.116c-.533.129-1.062.478-1.361.9-.053.075.015.024.152-.117 1.24-1.26 3.322-.989 3.829.499.015.043.038.068.051.054.059-.059-.237-.571-.457-.786-.547-.538-1.393-.749-2.216-.549m.325 1.139c-.974.442-1.152 1.8-.345 2.629.691.709 2.014.636 2.546-.141l.09-.132-.142.129-.246.225c-.586.536-1.706.459-2.253-.155-.677-.761-.557-2.011.231-2.414.07-.035.137-.077.148-.091s.068-.048.125-.074.086-.049.063-.05-.12.034-.216.077m-3.161 2.176c.013.033.081.231.15.439.645 1.925 2.071 2.999 3.982 3.001 1.225.001 2.56-.702 3.246-1.708.086-.126.103-.164.038-.084-2.3 2.845-6.257 2.087-7.268-1.39-.051-.175-.111-.318-.133-.318-.021 0-.029.027-.017.06m13.569.962c0 .012.018.053.04.094.021.04.081.203.132.364.989 3.137 4.795 4.056 6.934 1.673.306-.341.264-.344-.067-.004-2.266 2.33-5.86 1.393-6.851-1.788-.09-.289-.186-.464-.186-.339m-14.5.646c0 .023.018.074.04.115.021.04.087.248.147.464.444 1.614 1.588 2.817 3.192 3.353 2.326.779 4.912.145 6.36-1.558.311-.367.277-.349-.159.084-.242.24-.468.456-.5.479-.033.022-.146.112-.253.198s-.204.157-.216.157-.093.049-.18.108c-.95.65-2.369.929-3.805.749C2.971 17.884 1.41 16.476.9 14.117c-.023-.107-.106-.165-.106-.072" fill="#044488"/><path d="M16.865 1.78c.052.01.127.009.167-.001s-.003-.018-.095-.018-.124.009-.072.019m-3.063.933c-.142.09-.188.152-.063.083.096-.052.245-.169.219-.17a.8.8 0 0 0-.157.086m7.739.423c0 .006.145.151.323.323l.323.311-.311-.323c-.289-.3-.334-.342-.334-.311m-6.177 1.597c-.162.087-.143.117.021.035.157-.08.184-.101.132-.099a.6.6 0 0 0-.152.064m-1.752.176c-.107.109-.196.211-.196.227s.096-.066.212-.181.205-.217.196-.227-.105.072-.212.181m19.7.341c.089.091.172.167.183.167s-.052-.075-.141-.167-.172-.167-.183-.167.052.075.142.167M18.012 6.654c.064.009.157.009.208-.001s-.001-.018-.115-.018c-.115.001-.157.009-.093.018m13.479-.001a.7.7 0 0 0 .188 0c.051-.01.009-.018-.094-.018s-.145.009-.094.018m1.469.575c.077.081.15.145.163.145s-.043-.066-.12-.145-.15-.146-.163-.146.043.066.12.146m1.306.291c0 .161.007.221.017.135a1.5 1.5 0 0 0-.001-.291c-.009-.074-.017-.003-.017.157m-13.889.084c.124.126.235.229.247.229.011 0-.081-.103-.205-.229-.124-.127-.235-.23-.247-.23s.081.103.205.23M5.03 9.03c.074.009.205.009.292.001s.026-.017-.135-.017c-.161-.001-.232.007-.158.017m14.479.04c-.029.011-.072.061-.096.112-.037.077-.035.081.013.028.031-.035.083-.086.115-.115.061-.055.056-.059-.032-.025m-1.833 3.576c.001.091.009.124.019.072a.5.5 0 0 0-.001-.167c-.011-.04-.018.003-.018.095m-13.094.208c.077.08.15.145.163.145s-.043-.066-.12-.145a.8.8 0 0 0-.163-.146c-.013 0 .043.066.12.146m1.073.468c.075.009.188.009.25-.001s.002-.018-.137-.017-.189.008-.114.018m2.385.616c-.102.103-.174.188-.164.188s.103-.085.204-.188.174-.188.164-.188-.103.085-.204.188m13.664.927-.143.157.157-.143c.145-.134.175-.169.143-.169-.006 0-.077.07-.157.157m-14.07.436c-.051.025-.094.061-.094.082q0 .052.208-.089c.082-.056.005-.051-.115.007m8.869.292c0 .007.061.069.136.136l.136.122-.122-.136c-.114-.127-.148-.154-.148-.122m-10.677.225c.051.01.136.01.188 0 .051-.009.009-.018-.094-.018s-.145.009-.094.018m5.551 1.867c-.077.08-.13.145-.115.145.036 0 .289-.257.271-.275-.009-.009-.079.051-.155.13m-5.551.549c.051.01.127.009.167-.001s-.003-.018-.095-.018c-.091.001-.124.009-.072.019m21.216.94c.172.184.21.217.21.185 0-.006-.089-.096-.198-.198l-.198-.185z" fill="#04447c"/></g></svg>